<?xml version="1.0" encoding="utf-8"?>
<!-- Generator: Adobe Illustrator 27.3.1, SVG Export Plug-In . SVG Version: 6.00 Build 0)  -->
<svg version="1.1" id="Layer_1" xmlns="http://www.w3.org/2000/svg" xmlns:xlink="http://www.w3.org/1999/xlink" x="0px" y="0px"
	 viewBox="0 0 329.7 329.6" style="enable-background:new 0 0 329.7 329.6;" xml:space="preserve">
<style type="text/css">
	.st0{clip-path:url(#SVGID_00000063629181229766604090000001092267884278489472_);}
	.st1{fill:#EF4251;}
</style>
<g>
	<g>
		<defs>
			<rect id="SVGID_1_" x="2.4" y="2.3" width="325" height="325"/>
		</defs>
		<clipPath id="SVGID_00000153682197407822011050000012187146286168756881_">
			<use xlink:href="#SVGID_1_"  style="overflow:visible;"/>
		</clipPath>
		<g style="clip-path:url(#SVGID_00000153682197407822011050000012187146286168756881_);">
			<path class="st1" d="M299.2,73.2C266.2,25.7,213.4-0.1,157.1,2.5c-9,0.4-18,1.6-26.8,3.5c-8.8,1.9-17.4,4.5-25.8,7.9
				c-8.4,3.3-16.5,7.4-24.2,12.1c-7.7,4.7-15,10-21.8,16C22.4,73.3,2.4,117.5,2.4,164.8c0,2.6,0.1,5.3,0.2,7.9s0.3,5.3,0.6,7.9
				c0.3,2.6,0.6,5.3,1,7.9c0.4,2.6,0.8,5.2,1.3,7.8c0.5,2.6,1.1,5.2,1.7,7.7c0.6,2.6,1.3,5.1,2.1,7.6c0.8,2.5,1.6,5,2.5,7.5
				c0.9,2.5,1.8,5,2.8,7.4c1,2.4,2.1,4.9,3.2,7.3c1.1,2.4,2.3,4.8,3.5,7.1c1.2,2.3,2.5,4.6,3.9,6.9c1.4,2.3,2.8,4.5,4.2,6.7
				c1.5,2.2,3,4.4,4.5,6.5c1.6,2.1,3.2,4.2,4.9,6.3c1.7,2.1,3.4,4.1,5.2,6c1.8,2,3.6,3.9,5.4,5.8c1.9,1.9,3.8,3.7,5.7,5.5
				c2,1.8,3.9,3.5,6,5.2c2,1.7,4.1,3.3,6.2,4.9c2.1,1.6,4.3,3.1,6.5,4.6c2.2,1.5,4.4,2.9,6.7,4.3c2.3,1.4,4.5,2.7,6.9,4
				c2.3,1.3,4.7,2.5,7.1,3.6c2.4,1.1,4.8,2.2,7.2,3.3s4.9,2,7.4,2.9c2.5,0.9,5,1.8,7.5,2.5c2.5,0.8,5.1,1.5,7.6,2.2
				c2.6,0.7,5.1,1.3,7.7,1.8c2.6,0.5,5.2,1,7.8,1.4c2.6,0.4,5.2,0.8,7.9,1s5.3,0.5,7.9,0.6s5.3,0.2,7.9,0.3
				c43.9,0.4,85.3-16.6,116.3-47.6c11.4-11.3,20.8-24,28.4-38.2c16.9-31.4,23.1-68,16.8-105.3c-1.9-11.3-5-22.3-9.4-32.9
				C311.2,92.7,305.8,82.6,299.2,73.2z M83.7,188.6c-0.1-0.6-0.1-1.3,0-1.9c0.1-0.6,0.2-1.3,0.4-1.9c0.2-0.6,0.4-1.2,0.8-1.8
				c0.3-0.6,0.7-1.1,1.1-1.6c0.4-0.5,0.9-0.9,1.4-1.3c0.5-0.4,1.1-0.7,1.6-1c0.6-0.3,1.2-0.5,1.8-0.6c0.6-0.1,1.3-0.2,1.9-0.3
				c0.6,0,1.3,0,1.9,0.1c0.6,0.1,1.2,0.3,1.8,0.5c0.6,0.2,1.2,0.5,1.7,0.9c0.5,0.3,1,0.8,1.5,1.2c0.5,0.5,0.9,0.9,1.2,1.5
				c0.4,0.5,0.6,1.1,0.9,1.7c0.2,0.6,0.4,1.2,0.5,1.8c0.1,0.6,0.2,1.3,0.1,1.9c0,0.6-0.1,1.3-0.3,1.9c-0.2,0.6-0.4,1.2-0.6,1.8
				c-0.3,0.6-0.6,1.1-1,1.6c-0.4,0.5-0.8,1-1.3,1.4c-0.5,0.4-1,0.8-1.6,1.1c-0.6,0.3-1.1,0.6-1.8,0.8s-1.2,0.3-1.9,0.4
				c-0.6,0.1-1.3,0.1-1.9,0c-1.1-0.1-2.1-0.4-3.1-0.9c-1-0.5-1.8-1.1-2.6-1.8c-0.8-0.8-1.4-1.6-1.8-2.6
				C84.1,190.7,83.9,189.7,83.7,188.6z M255.1,197c-0.6,0.1-1.3,0.1-1.9,0c-0.6-0.1-1.3-0.2-1.9-0.4s-1.2-0.4-1.8-0.8
				c-0.6-0.3-1.1-0.7-1.6-1.1c-0.5-0.4-0.9-0.9-1.3-1.4s-0.7-1.1-1-1.6c-0.3-0.6-0.5-1.2-0.6-1.8c-0.2-0.6-0.2-1.3-0.3-1.9
				c0-0.6,0-1.3,0.1-1.9c0.1-0.6,0.3-1.2,0.5-1.8c0.2-0.6,0.5-1.2,0.9-1.7c0.3-0.5,0.8-1,1.2-1.5c0.5-0.5,0.9-0.9,1.5-1.2
				c0.5-0.3,1.1-0.6,1.7-0.9c0.6-0.2,1.2-0.4,1.8-0.5c0.6-0.1,1.3-0.2,1.9-0.1c0.6,0,1.3,0.1,1.9,0.3c0.6,0.2,1.2,0.4,1.8,0.6
				c0.6,0.3,1.1,0.6,1.6,1c0.5,0.4,1,0.8,1.4,1.3c0.4,0.5,0.8,1,1.1,1.6c0.3,0.6,0.6,1.2,0.8,1.8c0.2,0.6,0.3,1.2,0.4,1.9
				c0.1,0.6,0.1,1.3,0,1.9c-0.1,1.1-0.4,2.1-0.9,3.1c-0.5,1-1.1,1.8-1.8,2.6c-0.8,0.8-1.6,1.4-2.6,1.8
				C257.2,196.6,256.2,196.9,255.1,197z M206,237.5c1.1,1.6-1.8,5.6-3.8,7.8c-0.4,0.5-1,0.7-1.6,0.7h-41.1l-17.2-0.2
				c-0.7,0-1.3-0.1-1.9-0.3c-4.2-1.4-8.2-3.4-11.9-6c-6.6-4.7-10.1-10.7-10-17.4c0.1-14.4,9.1-21,16.8-24.2c-9-7.1-23-18.8-30.3-25
				l-3.6-3c-4-2.7-8.4-4.7-13-6c-4.6-1.4-9.4-2-14.2-2c-25.4,0-46,18.6-46,41.4c0,3.7,0.5,7.3,1.6,10.8l0.1,0.2
				c1,3.2,1.4,6.4,1.3,9.7c-0.1,3.3-0.6,6.5-1.7,9.6c-1-2-2-4.1-3-6.2c-12.4-27.4-16.9-59-10.7-92c10.6-56,65.7-110.2,121.9-120
				c95.7-16.7,179.1,56.8,179.1,149.5c0,13.2-1.7,26.1-5,38.8s-8.3,24.8-14.8,36.2c-0.7,1.3-1.5,2.6-2.3,3.9
				c-8.5-3.7-13.7-11.7-13.6-21.7c0.1-14.4,9-21,16.8-24.2c-11.6-9-30.7-25.1-34.1-28c-4.1-2.7-8.4-4.7-13.1-6.1
				c-4.7-1.4-9.4-2.1-14.3-2c-5.3,0-10.5,0.8-15.5,2.4c-17.7,5.8-30.4,21.1-30.4,39c0,9.1,3.2,17.7,9.3,24.9"/>
		</g>
	</g>
	<path class="st1" d="M228.5,115.2l0.8-0.3l-0.8-0.3c-16.2-5.9-26.8-15.9-37-25.6c-11.8-11.2-22.9-21.7-40.5-21.8
		c-47.3,0-49.5,37.7-50.2,50.2c-0.5,8.7-0.3,29.7-0.1,41.5c0,1.5,0.6,2.8,1.8,3.7c7.1,5.7,32.8,27,38.5,31.2
		c0.8,0.6,1.3,1.3,1.7,2.2c0.4,0.9,0.5,1.8,0.4,2.7l-0.5,3.9c-0.1,0.8-0.5,1.3-1.3,1.5c-10.5,2.7-17.5,7-17.6,18.1
		c-0.1,7.8,9.6,15,16.3,15c0.8,0,42.5,0,49.8,0c1.7-0.1,0.1-2.5-0.8-3.5c-7.6-8.6-11.2-19.3-11.2-30.5c0-21.1,14.3-39.2,34.4-46.7
		c-7.9-6.7-11.4-13.2-10.6-19.5C202.8,128.7,211.8,121.3,228.5,115.2z M171.2,111.5c-0.6,0.1-1.3,0.1-1.9,0
		c-0.6-0.1-1.3-0.2-1.9-0.4c-0.6-0.2-1.2-0.4-1.8-0.8c-0.6-0.3-1.1-0.7-1.6-1.1c-0.5-0.4-0.9-0.9-1.3-1.4c-0.4-0.5-0.7-1.1-1-1.6
		c-0.3-0.6-0.5-1.2-0.6-1.8c-0.1-0.6-0.2-1.3-0.3-1.9c0-0.6,0-1.3,0.1-1.9c0.1-0.6,0.3-1.2,0.5-1.8c0.2-0.6,0.5-1.2,0.9-1.7
		c0.4-0.5,0.8-1,1.2-1.5c0.5-0.5,0.9-0.9,1.5-1.2c0.5-0.3,1.1-0.6,1.7-0.9c0.6-0.2,1.2-0.4,1.8-0.5c0.6-0.1,1.3-0.2,1.9-0.1
		c0.6,0,1.3,0.1,1.9,0.3c0.6,0.2,1.2,0.4,1.8,0.6c0.6,0.3,1.1,0.6,1.6,1c0.5,0.4,1,0.8,1.4,1.3c0.4,0.5,0.8,1,1.1,1.6
		c0.3,0.6,0.6,1.2,0.8,1.8s0.3,1.2,0.4,1.9c0.1,0.6,0.1,1.3,0,1.9c-0.1,1.1-0.4,2.1-0.9,3.1c-0.5,1-1.1,1.8-1.8,2.6
		c-0.8,0.8-1.6,1.4-2.6,1.8C173.3,111.1,172.2,111.4,171.2,111.5z"/>
</g>
</svg>
