<svg width="48" height="48" viewBox="0 0 9 9" fill="none" xmlns="http://www.w3.org/2000/svg">
<path d="M8.73286 4.36643C8.73286 6.77791 6.77791 8.73286 4.36643 8.73286C1.95495 8.73286 0 6.77791 0 4.36643C0 1.95495 1.95495 0 4.36643 0C6.77791 0 8.73286 1.95495 8.73286 4.36643Z" fill="#FFCC4D"/>
<path d="M4.36643 5.30011C3.64694 5.30011 3.1693 5.21618 2.57886 5.10144C2.44375 5.07573 2.18152 5.10144 2.18152 5.49879C2.18152 6.29323 3.09435 7.28636 4.36643 7.28636C5.63852 7.28636 6.55135 6.29323 6.55135 5.49879C6.55135 5.10144 6.28887 5.07549 6.154 5.10144C5.56356 5.21618 5.08617 5.30011 4.36643 5.30011Z" fill="#664500"/>
<path d="M4.03896 0.795892C3.83058 0.206181 3.18411 -0.10335 2.59415 0.10454C2.23611 0.230682 1.98261 0.519594 1.88388 0.857507C1.59497 0.656409 1.21655 0.59067 0.858984 0.716811C0.269516 0.924944 -0.0405009 1.5719 0.167875 2.16161C0.19747 2.24506 0.236767 2.32244 0.282372 2.39401C0.755645 3.26293 2.12307 3.87374 2.95099 3.88126C3.59067 3.35559 4.27208 2.02189 4.09548 1.04866C4.08626 0.964242 4.06807 0.879339 4.03896 0.795892ZM4.69392 0.795892C4.9023 0.206181 5.54902 -0.10335 6.13873 0.10454C6.49677 0.230682 6.75027 0.519594 6.84924 0.857507C7.13815 0.656409 7.51658 0.59067 7.87414 0.716811C8.46361 0.924944 8.77338 1.5719 8.56549 2.16161C8.53565 2.24506 8.4966 2.32244 8.45075 2.39401C7.97748 3.26293 6.61006 3.87374 5.78189 3.88126C5.14221 3.35559 4.46105 2.02189 4.63764 1.04866C4.64662 0.964242 4.66481 0.879339 4.69392 0.795892Z" fill="#DD2E44"/>
</svg>
