<svg width="48" height="48" viewBox="0 0 10 10" fill="none" xmlns="http://www.w3.org/2000/svg">
<path d="M5.19367 9.44478C7.60518 9.44478 9.5601 7.48986 9.5601 5.07834C9.5601 2.66683 7.60518 0.711914 5.19367 0.711914C2.78216 0.711914 0.82724 2.66683 0.82724 5.07834C0.82724 7.48986 2.78216 9.44478 5.19367 9.44478Z" fill="#FFCC4D"/>
<path d="M3.37798 6.44187C3.38889 6.48529 3.66131 7.50413 5.19368 7.50413C6.7263 7.50413 6.99848 6.48529 7.00939 6.44187C7.02273 6.38923 6.99896 6.33465 6.9519 6.30748C6.9046 6.28056 6.84541 6.28856 6.80635 6.32616C6.80174 6.33077 6.33235 6.77639 5.19368 6.77639C4.05502 6.77639 3.58538 6.33077 3.58102 6.3264C3.55773 6.30336 3.52668 6.29123 3.49563 6.29123C3.47525 6.29123 3.45463 6.29632 3.43595 6.30675C3.38841 6.33392 3.36463 6.38899 3.37798 6.44187Z" fill="#664500"/>
<path d="M3.73819 4.83575C4.07313 4.83575 4.34464 4.45563 4.34464 3.98672C4.34464 3.51782 4.07313 3.1377 3.73819 3.1377C3.40326 3.1377 3.13174 3.51782 3.13174 3.98672C3.13174 4.45563 3.40326 4.83575 3.73819 4.83575Z" fill="#664500"/>
<path d="M6.64914 4.83575C6.98408 4.83575 7.25559 4.45563 7.25559 3.98672C7.25559 3.51782 6.98408 3.1377 6.64914 3.1377C6.31421 3.1377 6.04269 3.51782 6.04269 3.98672C6.04269 4.45563 6.31421 4.83575 6.64914 4.83575Z" fill="#664500"/>
</svg>
