<svg width="48" height="48" viewBox="0 0 10 10" fill="none" xmlns="http://www.w3.org/2000/svg">
<path d="M9.5601 5.07834C9.5601 7.48983 7.60515 9.44478 5.19367 9.44478C2.78219 9.44478 0.82724 7.48983 0.82724 5.07834C0.82724 2.66686 2.78219 0.711914 5.19367 0.711914C7.60515 0.711914 9.5601 2.66686 9.5601 5.07834Z" fill="#FFCC4D"/>
<path d="M5.19367 5.80608C4.31481 5.80608 3.73165 5.70371 3.01046 5.5635C2.84575 5.53172 2.5253 5.5635 2.5253 6.04866C2.5253 7.01898 3.63995 8.23187 5.19367 8.23187C6.74715 8.23187 7.86205 7.01898 7.86205 6.04866C7.86205 5.5635 7.5416 5.53148 7.37689 5.5635C6.6557 5.70371 6.07254 5.80608 5.19367 5.80608Z" fill="#664500"/>
<path d="M3.01047 6.04868C3.01047 6.04868 3.73821 6.29126 5.19368 6.29126C6.64916 6.29126 7.3769 6.04868 7.3769 6.04868C7.3769 6.04868 6.89174 7.01899 5.19368 7.01899C3.49563 7.01899 3.01047 6.04868 3.01047 6.04868Z" fill="white"/>
<path d="M4.63136 1.78241L3.52956 1.97671L2.96193 0.945022C2.89934 0.831252 2.77077 0.770365 2.64366 0.792682C2.51582 0.815242 2.41636 0.91664 2.39647 1.04472L2.21575 2.20838L1.11395 2.40268C0.984175 2.42548 0.883989 2.53004 0.866281 2.66079C0.848573 2.79154 0.917465 2.91865 1.03681 2.97541L2.02411 3.44408L1.84266 4.61137C1.82253 4.74139 1.88851 4.86947 2.00592 4.9289C2.04934 4.95074 2.09592 4.96117 2.14225 4.96117C2.22157 4.96117 2.29993 4.93012 2.35839 4.87093L3.21033 4.0071L4.3063 4.52744C4.42516 4.58371 4.56683 4.55727 4.65707 4.46145C4.74731 4.36563 4.76526 4.22276 4.70195 4.10753L4.13237 3.0722L4.90014 2.29401C4.9928 2.20013 5.01391 2.05701 4.95278 1.94008C4.89116 1.82316 4.76041 1.75985 4.63136 1.78241ZM5.75596 1.78241L6.85775 1.97671L7.42539 0.945022C7.48797 0.831252 7.61654 0.770365 7.74365 0.792682C7.87125 0.815242 7.97071 0.91664 7.9906 1.04472L8.17132 2.20838L9.27312 2.40268C9.40314 2.42548 9.50332 2.52979 9.52079 2.66054C9.53826 2.79129 9.4696 2.91841 9.35026 2.97517L8.36296 3.44383L8.54441 4.61113C8.56454 4.74115 8.49856 4.86923 8.38115 4.92866C8.33773 4.95049 8.29115 4.96093 8.24482 4.96093C8.1655 4.96093 8.08714 4.92987 8.02868 4.87069L7.17674 4.00686L6.08077 4.52719C5.96191 4.58347 5.82024 4.55703 5.73 4.46121C5.63976 4.36539 5.62181 4.22251 5.68512 4.10729L6.2547 3.0722L5.48694 2.29401C5.39427 2.20013 5.37317 2.05701 5.4343 1.94008C5.49615 1.82316 5.6269 1.75985 5.75596 1.78241Z" fill="#E95F28"/>
</svg>
