<svg width="10" height="10" viewBox="0 0 10 10" fill="none" xmlns="http://www.w3.org/2000/svg">
<path d="M9.5601 5.07834C9.5601 7.48983 7.60515 9.44478 5.19367 9.44478C2.78219 9.44478 0.82724 7.48983 0.82724 5.07834C0.82724 2.66686 2.78219 0.711914 5.19367 0.711914C7.60515 0.711914 9.5601 2.66686 9.5601 5.07834Z" fill="#FFCC4D"/>
<path fill-rule="evenodd" clip-rule="evenodd" d="M1.12805 3.38466C1.18627 3.44263 1.47688 3.61681 1.53485 3.79098C1.59307 3.96491 1.70951 4.95148 2.05834 5.24185C2.41808 5.5407 3.77507 5.4296 4.03488 5.30006C4.61634 5.01018 4.68766 4.20094 4.79051 3.79098C4.84849 3.55883 5.19732 3.55883 5.19732 3.55883C5.19732 3.55883 5.54615 3.55883 5.60437 3.79073C5.70722 4.20094 5.77902 5.01018 6.36 5.29982C6.62005 5.4296 7.97704 5.54095 8.33727 5.24209C8.68561 4.95172 8.80181 3.96515 8.86002 3.79098C8.91776 3.61705 9.20885 3.44288 9.26683 3.3849C9.32529 3.32692 9.32529 3.09477 9.26683 3.03656C9.15064 2.9206 7.77885 2.81726 6.30178 2.97858C6.00705 3.01084 5.89498 3.09453 5.19707 3.09453C4.49966 3.09453 4.3871 3.0106 4.09261 2.97858C2.61651 2.81702 1.24448 2.92036 1.12805 3.03631C1.07007 3.09429 1.07007 3.32668 1.12805 3.38466Z" fill="#292F33"/>
<path d="M7.45816 6.44382C7.41498 6.40477 7.35046 6.40234 7.30413 6.43679C7.29466 6.44382 6.35273 7.14027 5.19368 7.14027C4.03755 7.14027 3.09246 6.44382 3.08324 6.43679C3.03691 6.40234 2.97238 6.40525 2.9292 6.44382C2.88627 6.48264 2.87656 6.54668 2.9064 6.59616C2.93769 6.64832 3.68678 7.86801 5.19368 7.86801C6.70059 7.86801 7.44992 6.64832 7.48097 6.59616C7.5108 6.54643 7.50134 6.48264 7.45816 6.44382Z" fill="#664500"/>
</svg>
